<svg width="76.360009765625px" height="123.68001098632813px" xmlns="http://www.w3.org/2000/svg" viewBox="211.8199951171875 13.159994506835936 76.360009765625 123.68001098632813" style="background: rgba(0, 0, 0, 0) none repeat scroll 0% 0%;" preserveAspectRatio="xMidYMid"><defs><filter id="editing-extrusion" x="-100%" y="-100%" width="300%" height="300%"><feFlood result="color1" flood-color="#444"></feFlood><feConvolveMatrix order="1,1" divisor="1" kernelMatrix="1" in="SourceAlpha" result="extrude"></feConvolveMatrix><feComposite in="color1" in2="extrude" result="comp-extrude" operator="in"></feComposite><feOffset dx="0.5" dy="0.5" in="comp-extrude" result="offset-extrude"></feOffset><feMerge><feMergeNode in="offset-extrude"></feMergeNode><feMergeNode in="SourceGraphic"></feMergeNode></feMerge></filter></defs><g filter="url(#editing-extrusion)"><g transform="translate(230.58000802993774, 92.5999984741211)"><path d="M3.87-1.92L3.87-1.92L3.87-1.92Q2.37-3.58 1.70-6.21L1.70-6.21L1.70-6.21Q1.02-8.83 1.02-13.12L1.02-13.12L1.02-13.12Q1.02-17.41 2.50-21.31L2.50-21.31L2.50-21.31Q3.97-25.22 6.66-28.03L6.66-28.03L6.66-28.03Q12.16-33.92 21.25-33.92L21.25-33.92L21.25-33.92Q24.51-33.92 26.88-32.83L26.88-32.83L37.82-33.92L33.09-8.96L33.09-8.96Q32.90-8.19 32.90-6.78L32.90-6.78L32.90-6.78Q32.90-5.38 33.76-4.48L33.76-4.48L33.76-4.48Q34.62-3.58 35.90-3.46L35.90-3.46L35.90-3.46Q35.26-1.28 32.93 0L32.93 0L32.93 0Q30.59 1.28 27.97 1.28L27.97 1.28L27.97 1.28Q25.34 1.28 23.58 0.29L23.58 0.29L23.58 0.29Q21.82-0.70 21.31-2.37L21.31-2.37L21.31-2.37Q20.29-0.77 18.11 0.26L18.11 0.26L18.11 0.26Q15.94 1.28 13.02 1.28L13.02 1.28L13.02 1.28Q10.11 1.28 7.74 0.51L7.74 0.51L7.74 0.51Q5.38-0.26 3.87-1.92ZM17.38-27.90L17.38-27.90L17.38-27.90Q16.64-26.75 16-24.80L16-24.80L16-24.80Q15.36-22.85 14.30-17.63L14.30-17.63L14.30-17.63Q13.25-12.42 13.25-8.70L13.25-8.70L13.25-8.70Q13.25-4.99 13.82-3.90L13.82-3.90L13.82-3.90Q14.40-2.82 15.42-2.82L15.42-2.82L15.42-2.82Q17.47-2.82 18.98-4.77L18.98-4.77L18.98-4.77Q20.48-6.72 21.06-10.18L21.06-10.18L24.45-28.93L24.45-28.93Q23.10-30.08 21.54-30.08L21.54-30.08L21.54-30.08Q19.97-30.08 19.04-29.57L19.04-29.57L19.04-29.57Q18.11-29.06 17.38-27.90Z" fill="#ccc"></path></g></g><style>text {
  font-size: 64px;
  font-family: Arial Black;
  dominant-baseline: central;
  text-anchor: middle;
}</style></svg>