<svg 
  width="395.260009765625px" 
  height="123.68001098632813px" 
  xmlns="http://www.w3.org/2000/svg" 
  viewBox="52.3699951171875 13.159994506835936 395.260009765625 123.68001098632813" 
  style="background: rgba(0, 0, 0, 0) none repeat scroll 0% 0%;" 
  preserveAspectRatio="xMidYMid"
>
  <defs>
    <filter id="editing-extrusion" x="-100%" y="-100%" width="300%" height="300%">
    <feFlood result="color1" flood-color="#444"></feFlood>
    <feConvolveMatrix 
      order="8,8" 
      divisor="1" 
      kernelMatrix="1 0 0 0 0 0 0 0 0 1 0 0 0 0 0 0 0 0 1 0 0 0 0 0 0 0 0 1 0 0 0 0 0 0 0 0 1 0 0 0 0 0 0 0 0 1 0 0 0 0 0 0 0 0 1 0 0 0 0 0 0 0 0 1" 
      in="SourceAlpha" 
      result="extrude">
    </feConvolveMatrix>
    <feComposite in="color1" in2="extrude" result="comp-extrude" operator="in"></feComposite>
    <feOffset dx="4" dy="4" in="comp-extrude" result="offset-extrude"></feOffset>
    <feMerge>
      <feMergeNode in="offset-extrude"></feMergeNode>
      <feMergeNode in="SourceGraphic"></feMergeNode>
    </feMerge>
    </filter>
  </defs>
  
  <g filter="url(#editing-extrusion)">
  <g transform="translate(112.92853605747223, 98.68000030517578)">
  <path d="M34.50-13.25L34.50-13.25L34.50-13.25Q36.16-12.03 36.16-9.44L36.16-9.44L36.16-9.44Q36.16-6.85 35.04-5.02L35.04-5.02L35.04-5.02Q33.92-3.20 31.74-1.79L31.74-1.79L31.74-1.79Q27.07 1.22 18.91 1.22L18.91 1.22L18.91 1.22Q10.75 1.22 6.30-3.04L6.30-3.04L6.30-3.04Q1.86-7.30 1.86-14.85L1.86-14.85L1.86-14.85Q1.86-25.54 7.42-33.66L7.42-33.66L7.42-33.66Q11.65-39.68 19.20-42.24L19.20-42.24L19.20-42.24Q23.10-43.52 26.94-43.52L26.94-43.52L26.94-43.52Q30.78-43.52 33.15-43.01L33.15-43.01L33.15-43.01Q35.52-42.50 37.31-41.47L37.31-41.47L37.31-41.47Q41.22-39.23 41.22-35.65L41.22-35.65L41.22-35.65Q41.22-32.38 38.14-29.95L38.14-29.95L38.14-29.95Q35.33-27.78 33.02-27.78L33.02-27.78L33.02-27.78Q30.72-27.78 29.76-28.10L29.76-28.10L29.76-28.10Q30.02-30.40 30.02-31.90L30.02-31.90L30.02-31.90Q30.02-33.41 29.95-34.50L29.95-34.50L29.95-34.50Q29.89-35.58 29.57-36.61L29.57-36.61L29.57-36.61Q28.93-38.98 26.98-38.98L26.98-38.98L26.98-38.98Q25.02-38.98 23.07-37.15L23.07-37.15L23.07-37.15Q21.12-35.33 19.46-32.26L19.46-32.26L19.46-32.26Q15.68-25.28 15.68-17.02L15.68-17.02L15.68-17.02Q15.68-13.06 17.92-10.78L17.92-10.78L17.92-10.78Q20.16-8.51 24.96-8.51L24.96-8.51L24.96-8.51Q28.54-8.51 31.94-10.88L31.94-10.88L31.94-10.88Q33.41-11.90 34.50-13.25ZM55.42 1.28L55.42 1.28L55.42 1.28Q41.34 1.28 41.34-11.97L41.34-11.97L41.34-11.97Q41.34-21.38 46.53-27.46L46.53-27.46L46.53-27.46Q52.03-33.92 61.57-33.92L61.57-33.92L61.57-33.92Q68.48-33.92 72-30.72L72-30.72L72-30.72Q75.52-27.52 75.52-20.80L75.52-20.80L75.52-20.80Q75.52-10.56 70.02-4.61L70.02-4.61L70.02-4.61Q64.64 1.28 55.42 1.28ZM57.09-26.56L57.09-26.56L57.09-26.56Q56.32-24.83 55.71-22.24L55.71-22.24L55.71-22.24Q55.10-19.65 54.34-15.55L54.34-15.55L54.34-15.55Q53.57-11.46 53.57-6.40L53.57-6.40L53.57-6.40Q53.57-4.74 54.11-3.65L54.11-3.65L54.11-3.65Q54.66-2.56 56.13-2.56L56.13-2.56L56.13-2.56Q57.60-2.56 58.53-3.26L58.53-3.26L58.53-3.26Q59.46-3.97 60.16-5.63L60.16-5.63L60.16-5.63Q61.44-8.58 62.46-14.05L62.46-14.05L62.46-14.05Q63.49-19.52 63.58-21.89L63.58-21.89L63.58-21.89Q63.68-24.26 63.68-26.02L63.68-26.02L63.68-26.02Q63.68-27.78 63.17-28.93L63.17-28.93L63.17-28.93Q62.66-30.08 61.22-30.08L61.22-30.08L61.22-30.08Q59.78-30.08 58.82-29.18L58.82-29.18L58.82-29.18Q57.86-28.29 57.09-26.56ZM93.25 1.28L93.25 1.28L93.25 1.28Q79.17 1.28 79.17-11.97L79.17-11.97L79.17-11.97Q79.17-21.38 84.35-27.46L84.35-27.46L84.35-27.46Q89.86-33.92 99.39-33.92L99.39-33.92L99.39-33.92Q106.30-33.92 109.82-30.72L109.82-30.72L109.82-30.72Q113.34-27.52 113.34-20.80L113.34-20.80L113.34-20.80Q113.34-10.56 107.84-4.61L107.84-4.61L107.84-4.61Q102.46 1.28 93.25 1.28ZM94.91-26.56L94.91-26.56L94.91-26.56Q94.14-24.83 93.54-22.24L93.54-22.24L93.54-22.24Q92.93-19.65 92.16-15.55L92.16-15.55L92.16-15.55Q91.39-11.46 91.39-6.40L91.39-6.40L91.39-6.40Q91.39-4.74 91.94-3.65L91.94-3.65L91.94-3.65Q92.48-2.56 93.95-2.56L93.95-2.56L93.95-2.56Q95.42-2.56 96.35-3.26L96.35-3.26L96.35-3.26Q97.28-3.97 97.98-5.63L97.98-5.63L97.98-5.63Q99.26-8.58 100.29-14.05L100.29-14.05L100.29-14.05Q101.31-19.52 101.41-21.89L101.41-21.89L101.41-21.89Q101.50-24.26 101.50-26.02L101.50-26.02L101.50-26.02Q101.50-27.78 100.99-28.93L100.99-28.93L100.99-28.93Q100.48-30.08 99.04-30.08L99.04-30.08L99.04-30.08Q97.60-30.08 96.64-29.18L96.64-29.18L96.64-29.18Q95.68-28.29 94.91-26.56ZM132.42-3.52L132.42-3.52L132.42-3.52Q130.43 1.28 124.10 1.28L124.10 1.28L124.10 1.28Q120.90 1.28 118.85-0.96L118.85-0.96L118.85-0.96Q117.18-2.82 117.18-4.93L117.18-4.93L117.18-4.93Q117.18-9.73 119.42-20.22L119.42-20.22L124.10-44.80L137.09-46.08L130.88-13.70L130.88-13.70Q129.79-8.96 129.79-7.30L129.79-7.30L129.79-7.30Q129.79-3.65 132.42-3.52ZM156.16-31.17L156.16-31.17L156.16-31.17Q153.98-32.83 153.98-36.38L153.98-36.38L153.98-36.38Q153.98-39.94 156.32-41.79L156.32-41.79L156.32-41.79Q158.66-43.65 162.69-43.65L162.69-43.65L162.69-43.65Q165.25-43.65 171.33-42.75L171.33-42.75L175.68-42.11L175.68-42.11Q177.86-41.86 180.13-41.86L180.13-41.86L180.13-41.86Q182.40-41.86 183.94-42.82L183.94-42.82L183.94-42.82Q186.24-40.77 186.24-37.82L186.24-37.82L186.24-37.82Q186.24-34.88 183.62-32.77L183.62-32.77L183.62-32.77Q180.93-30.53 177.47-30.53L177.47-30.53L177.47-30.53Q175.81-30.53 173.12-30.98L173.12-30.98L173.12-30.98Q169.98-21.12 169.98-14.27L169.98-14.27L169.98-14.27Q169.98-7.42 173.44-3.84L173.44-3.84L173.44-3.84Q171.84-0.96 169.47 0.16L169.47 0.16L169.47 0.16Q167.10 1.28 163.55 1.28L163.55 1.28L163.55 1.28Q160 1.28 157.79-0.67L157.79-0.67L157.79-0.67Q155.58-2.62 155.58-6.66L155.58-6.66L155.58-6.66Q155.58-11.33 158.14-19.01L158.14-19.01L158.14-19.01Q160.70-26.62 164.54-32.45L164.54-32.45L164.54-32.45Q162.69-32.64 160.77-32.64L160.77-32.64L160.77-32.64Q156.80-32.64 156.16-31.17ZM207.17-10.82L207.17-10.82L207.17-10.82Q208.77-9.73 208.77-7.33L208.77-7.33L208.77-7.33Q208.77-4.93 207.55-3.39L207.55-3.39L207.55-3.39Q206.34-1.86 204.35-0.83L204.35-0.83L204.35-0.83Q200.26 1.28 195.84 1.28L195.84 1.28L195.84 1.28Q191.42 1.28 188.83 0.32L188.83 0.32L188.83 0.32Q186.24-0.64 184.51-2.43L184.51-2.43L184.51-2.43Q181.12-5.82 181.12-12.03L181.12-12.03L181.12-12.03Q181.12-21.70 186.37-27.58L186.37-27.58L186.37-27.58Q192-33.92 201.79-33.92L201.79-33.92L201.79-33.92Q207.87-33.92 210.88-31.36L210.88-31.36L210.88-31.36Q213.12-29.44 213.12-26.30L213.12-26.30L213.12-26.30Q213.12-15.04 193.66-15.04L193.66-15.04L193.66-15.04Q193.41-13.38 193.41-11.97L193.41-11.97L193.41-11.97Q193.41-9.02 194.72-7.90L194.72-7.90L194.72-7.90Q196.03-6.78 198.46-6.78L198.46-6.78L198.46-6.78Q200.90-6.78 203.49-7.90L203.49-7.90L203.49-7.90Q206.08-9.02 207.17-10.82ZM194.11-17.79L194.11-17.79L194.11-17.79Q198.66-17.79 201.28-20.61L201.28-20.61L201.28-20.61Q203.90-23.30 203.90-27.58L203.90-27.58L203.90-27.58Q203.90-29.06 203.36-29.86L203.36-29.86L203.36-29.86Q202.82-30.66 201.73-30.66L201.73-30.66L201.73-30.66Q200.64-30.66 199.71-30.24L199.71-30.24L199.71-30.24Q198.78-29.82 197.82-28.42L197.82-28.42L197.82-28.42Q195.46-25.22 194.11-17.79ZM223.81 0.19L223.81 0.19L223.81 0.19Q221.76 1.28 218.94 1.28L218.94 1.28L218.94 1.28Q216.13 1.28 214.59-0.16L214.59-0.16L214.59-0.16Q213.06-1.60 213.06-4.38L213.06-4.38L213.06-4.38Q213.06-7.17 215.01-9.89L215.01-9.89L215.01-9.89Q216.96-12.61 219.87-14.14L219.87-14.14L219.87-14.14Q222.78-15.68 224.83-16.58L224.83-16.58L220.80-25.86L220.80-25.86Q219.71-28.22 217.66-28.22L217.66-28.22L217.15-28.16L216.96-28.16L216.96-28.16Q217.34-30.40 219.97-32.13L219.97-32.13L219.97-32.13Q222.59-33.92 225.60-33.92L225.60-33.92L225.60-33.92Q230.46-33.92 232.70-29.06L232.70-29.06L233.22-28.03L235.97-21.25L235.97-21.25Q237.70-22.02 238.43-23.46L238.43-23.46L238.43-23.46Q239.17-24.90 239.17-27.74L239.17-27.74L239.17-27.74Q239.17-30.59 237.63-32.38L237.63-32.38L237.63-32.38Q240.06-33.92 243.26-33.92L243.26-33.92L243.26-33.92Q249.02-33.92 249.02-28.35L249.02-28.35L249.02-28.35Q249.02-22.27 241.41-18.75L241.41-18.75L237.57-16.96L241.02-8.06L241.02-8.06Q242.05-5.38 243.90-4.22L243.90-4.22L243.90-4.22Q244.67-3.71 245.57-3.65L245.57-3.65L245.57-3.65Q243.65-0.51 239.49 0.90L239.49 0.90L239.49 0.90Q238.21 1.28 236.48 1.28L236.48 1.28L236.48 1.28Q234.75 1.28 232.77 0.10L232.77 0.10L232.77 0.10Q230.78-1.09 230.08-2.94L230.08-2.94L226.56-12.10L226.56-12.10Q222.98-10.50 222.98-4.67L222.98-4.67L222.98-4.67Q222.98-1.98 223.81 0.19ZM251.78-6.40L251.78-6.40L251.78-6.40Q251.78-8.13 252.67-12.48L252.67-12.48L256.06-29.76L252.29-29.76L252.54-31.68L252.54-31.68Q260.22-33.98 267.65-39.62L267.65-39.62L270.72-39.62L269.18-32.64L274.18-32.64L273.60-29.76L268.67-29.76L265.41-12.48L265.41-12.48Q264.58-8.51 264.58-7.17L264.58-7.17L264.58-7.17Q264.58-4.10 267.26-3.46L267.26-3.46L267.26-3.46Q266.62-1.28 264.32 0L264.32 0L264.32 0Q262.02 1.28 258.75 1.28L258.75 1.28L258.75 1.28Q255.49 1.28 253.63-0.77L253.63-0.77L253.63-0.77Q251.78-2.82 251.78-6.40Z" fill="#ccc"></path></g></g><style>text {
  font-size: 64px;
  font-family: Arial Black;
  dominant-baseline: central;
  text-anchor: middle;
}</style></svg>