<?xml version="1.0" encoding="UTF-8" standalone="no"?>
<!-- Created with Inkscape (http://www.inkscape.org/) -->

<svg
   xmlns:dc="http://purl.org/dc/elements/1.1/"
   xmlns:cc="http://creativecommons.org/ns#"
   xmlns:rdf="http://www.w3.org/1999/02/22-rdf-syntax-ns#"
   xmlns:svg="http://www.w3.org/2000/svg"
   xmlns="http://www.w3.org/2000/svg"
   xmlns:sodipodi="http://sodipodi.sourceforge.net/DTD/sodipodi-0.dtd"
   xmlns:inkscape="http://www.inkscape.org/namespaces/inkscape"
   width="210mm"
   height="297mm"
   viewBox="0 0 210 297"
   version="1.1"
   id="svg8"
   inkscape:version="0.92.4 (5da689c313, 2019-01-14)"
   sodipodi:docname="drawing.svg">
  <defs
     id="defs2" />
  <sodipodi:namedview
     id="base"
     pagecolor="#ffffff"
     bordercolor="#666666"
     borderopacity="1.0"
     inkscape:pageopacity="0.0"
     inkscape:pageshadow="2"
     inkscape:zoom="0.86"
     inkscape:cx="358.86704"
     inkscape:cy="876.42514"
     inkscape:document-units="mm"
     inkscape:current-layer="layer1"
     showgrid="false"
     inkscape:window-width="1600"
     inkscape:window-height="877"
     inkscape:window-x="-8"
     inkscape:window-y="116"
     inkscape:window-maximized="1"
     inkscape:snap-bbox="true" />
  <metadata
     id="metadata5">
    <rdf:RDF>
      <cc:Work
         rdf:about="">
        <dc:format>image/svg+xml</dc:format>
        <dc:type
           rdf:resource="http://purl.org/dc/dcmitype/StillImage" />
        <dc:title />
      </cc:Work>
    </rdf:RDF>
  </metadata>
  <g
     inkscape:label="Layer 1"
     inkscape:groupmode="layer"
     id="layer1">
    <path
       style="fill:none;stroke:#000000;stroke-width:0.26458332px;stroke-linecap:butt;stroke-linejoin:miter;stroke-opacity:1"
       d="m 93.764617,10.600146 c -25.99415,56.630116 -2.785086,215.844294 -2.785086,215.844294 0,0 -89.5869872,-24.13742 -42.704678,43.16886 46.882309,67.30629 63.592837,-19.03143 63.592837,-19.03143 0,0 -4.64181,58.02265 32.02851,30.63597 36.67032,-27.3867 -11.60454,-53.38085 -11.60454,-53.38085 0,0 43.63305,-200.9905 11.14035,-211.202487 C 110.93933,6.4225145 115.58114,44.021197 115.58114,44.021197 L 114.1886,12.456871 c 0,0 -13.46126,-4.6418126 -16.710532,-2.7850874 -3.950936,0.2860652 -3.713451,0.9283624 -3.713451,0.9283624 z"
       id="path10"
       inkscape:connector-curvature="0" />
  </g>
</svg>
